<svg id="Capa_1" enable-background="new 0 0 512 512" height="512" viewBox="0 0 512 512" width="512" xmlns="http://www.w3.org/2000/svg" xmlns:xlink="http://www.w3.org/1999/xlink"><linearGradient id="SVGID_1_" gradientUnits="userSpaceOnUse" x1="256" x2="256" y1="481" y2="121"><stop offset="0" stop-color="#00b59c"/><stop offset="1" stop-color="#9cffac"/></linearGradient><linearGradient id="SVGID_2_" gradientUnits="userSpaceOnUse" x1="256" x2="256" y1="401.47" y2="31"><stop offset="0" stop-color="#c3ffe8"/><stop offset=".9973" stop-color="#f0fff4"/></linearGradient><g><g><g><path d="m437 121h-362c-8.291 0-15 6.709-15 15v330c0 8.291 6.709 15 15 15h362c8.291 0 15-6.709 15-15v-330c0-8.291-6.709-15-15-15z" fill="url(#SVGID_1_)"/></g></g><g><g><path d="m376 181h-241c-8.291 0-15 6.709-15 15v204.97l93.988-123.964c5.684-7.559 18.34-7.559 24.023 0l45.498 60.688 20.01-30.015c5.566-8.35 19.395-8.35 24.961 0l62.52 93.791v-205.47c0-8.291-6.709-15-15-15zm-90 90c-8.284 0-15-6.716-15-15 0-8.286 6.716-15 15-15s15 6.714 15 15c0 8.284-6.716 15-15 15zm221.605-120-113.906-115.605c-5.859-5.859-15.352-5.859-21.211 0l-21.094 21.094c-5.859 5.859-5.859 15.352 0 21.211l113.906 115.605c5.86 5.859 15.352 5.859 21.211 0l21.094-21.094c5.86-5.859 5.86-15.352 0-21.211zm-347-94.512-21.094-21.094c-5.859-5.859-15.352-5.859-21.211 0l-113.905 115.606c-5.859 5.859-5.859 15.352 0 21.211l21.094 21.094c5.859 5.859 15.351 5.859 21.211 0l113.905-115.606c5.86-5.859 5.86-15.351 0-21.211z" fill="url(#SVGID_2_)"/></g></g></g></svg>